<svg xmlns="http://www.w3.org/2000/svg" width="616" height="616" viewBox="0 0 616 616">
  <defs>
    <style>
      .cls-1 {
        fill: #f8f9fa;
        fill-rule: evenodd;
        opacity: 0.85;
      }
    </style>
  </defs>
  <path id="Фигура_1" data-name="Фигура 1" class="cls-1" d="M287,12c104.716-16.11,89.133,194.073-26,187C183.209,194.221,196.44,25.932,287,12ZM454,79c107.55-11.5,80.141,195.3-22,188C335.457,260.1,374.721,87.479,454,79ZM113,110c105.2-20.234,84.067,200.477-27,187C12.644,288.1,17.467,128.374,113,110ZM295,250c29.532-.258,51.064,9.662,64,26,17.11,21.609,29.889,79.514,39,110s33.992,68.625,41,90c18.582,56.674-27.091,122.756-74,132-65.4,12.889-91.833-60.366-143-75-33.793-9.665-114.783,11.917-163-25C14.319,473.791,38.958,387.931,74,362s65-34,98-51C214.94,291.736,247.316,265.273,295,250Zm262,16c85.077,19.365,47.39,203.359-56,184C417.017,434.275,452.864,242.3,557,266Z"/>
</svg>
